<?xml version="1.0" encoding="utf-8"?>
<svg id="svg" version="1.1" width="400" height="343.11111111111114" viewBox="0, 0, 400,343.11111111111114" xmlns="http://www.w3.org/2000/svg">
  <g id="svgg">
    <path id="path0" d="M185.236 11.571 C 164.492 13.464,135.961 30.246,123.262 48.023 C 114.486 60.309,115.148 59.735,109.282 60.124 C 107.057 60.271,102.616 60.565,99.414 60.777 C 80.376 62.039,64.393 67.247,49.099 77.171 C 19.773 96.199,4.236 134.567,13.958 163.948 C 22.761 190.555,44.928 213.069,68.181 219.020 C 69.677 219.403,71.828 220.039,72.961 220.434 C 76.063 221.513,87.838 223.430,94.335 223.912 C 100.923 224.402,252.355 224.585,255.143 224.107 C 258.498 223.531,258.956 221.895,256.672 218.649 C 254.327 215.314,246.743 203.946,245.836 202.403 C 241.585 195.180,237.566 192.080,228.326 188.899 C 226.155 188.151,222.635 186.822,220.505 185.946 C 218.374 185.069,213.739 183.590,210.204 182.657 C 206.669 181.725,202.000 180.441,199.828 179.802 C 197.657 179.164,194.412 178.218,192.618 177.700 C 180.548 174.216,176.417 172.468,164.120 165.644 C 159.993 163.354,152.818 158.064,151.761 156.532 C 151.318 155.890,149.939 154.271,148.697 152.935 C 144.378 148.290,142.233 145.722,141.540 144.367 C 141.156 143.618,139.808 141.305,138.543 139.227 C 126.536 119.505,124.507 107.323,130.454 90.653 C 137.492 70.922,160.015 54.695,181.928 53.567 C 191.272 53.086,194.590 53.505,202.575 56.173 C 233.487 66.500,256.540 104.294,249.299 132.774 C 246.269 144.692,248.055 156.337,255.263 171.674 C 256.639 174.601,258.021 177.669,258.336 178.491 C 259.083 180.445,261.145 183.374,270.252 195.416 C 274.575 201.133,279.226 205.887,285.494 210.993 C 289.166 213.985,292.522 217.169,295.569 220.552 C 299.745 225.189,310.633 224.001,329.115 216.893 C 342.852 211.609,353.085 204.077,361.160 193.305 C 363.355 190.378,366.263 186.553,367.623 184.806 C 376.306 173.652,381.443 153.523,379.764 137.239 C 375.254 93.487,322.753 54.873,278.385 62.673 C 273.555 63.522,273.822 63.699,267.159 55.228 C 251.861 35.779,232.999 21.293,215.612 15.639 C 203.127 11.579,195.842 10.603,185.236 11.571 " stroke="none" fill="#f9faf9" fill-rule="evenodd"/>
    <path id="path1" d="M 0 171.674 L 0 343.348 L 200 343.348 L 400 343.348 L 400 171.674 L 400 0 L 200 0 L 0 0 L 0 171.674 M 201.373 11.838 C 224.968 15.691 248.019 30.894 267.159 55.228 C 273.822 63.699 273.555 63.522 278.385 62.673 C 322.753 54.873 375.254 93.487 379.764 137.239 C 381.444 153.532 376.296 173.689 367.616 184.806 C 364.2 189.179 360.141 194.678 360.327 194.678 C 360.412 194.678 361.822 192.94 363.46 190.815 C 365.099 188.691 366.945 186.412 367.562 185.751 C 369.255 183.938 372.106 179.997 373.398 177.682 C 376.737 171.7 381.396 155.028 382.649 144.576 C 382.882 142.628 383.332 141.459 383.848 141.459 C 385.436 141.459 386.478 158.818 385.167 163.433 C 384.872 164.472 384.442 166.326 384.21 167.554 C 383.979 168.781 383.404 170.867 382.931 172.189 C 382.459 173.511 381.773 175.519 381.407 176.652 C 380.591 179.174 375.854 189.59 374.77 191.245 C 374.336 191.906 373.016 193.991 371.835 195.88 C 368.817 200.706 362.201 208.016 357.729 211.464 C 356.712 212.248 354.953 213.672 353.82 214.628 C 351.651 216.458 345.252 220.429 344.472 220.429 C 344.221 220.429 343.128 220.877 342.044 221.424 C 337.597 223.669 330.308 225.469 320.343 226.782 C 312.226 227.852 309.638 228.293 309.161 228.689 C 307.697 229.904 309.68 233.277 315.404 239.313 C 320.285 244.46 324.363 249.264 327.644 253.734 C 329.1 255.717 331.104 258.443 332.098 259.792 C 335.757 264.759 351.468 283.012 357.496 286.855 C 361.348 289.311 359.082 299.231 358.965 299.767 C 358.847 300.302 358.447 301.127 358.075 301.599 C 357.574 302.236 357.486 302.617 357.733 303.075 C 358.408 304.32 358.771 305.978 358.494 306.545 C 358.337 306.864 357.956 307.612 357.646 308.207 C 357.335 308.803 357.079 309.807 357.076 310.439 C 357.068 312.38 356.39 314.115 354.121 318.008 C 353.576 318.942 351.863 320.687 351.491 320.687 C 351.319 320.687 350.748 320.994 350.221 321.369 C 349.695 321.743 348.435 322.225 347.422 322.439 C 346.408 322.652 345.193 323.022 344.721 323.26 C 342.246 324.508 334.001 325.24 330.987 324.479 C 330.137 324.265 328.515 323.877 327.382 323.617 C 322.683 322.542 316.454 318.11 313.938 314.053 C 313.449 313.264 312.768 312.309 312.425 311.931 C 312.082 311.554 311.8 311.119 311.798 310.965 C 311.796 310.811 311.391 310.366 310.896 309.978 C 309.494 308.874 308.49 307.024 307.122 303.019 C 306.271 300.53 305.387 298.69 304.415 297.386 C 303.219 295.783 301.683 292.94 301.614 292.2 C 301.567 291.705 298.907 286.737 298.175 285.777 C 297.715 285.174 297.339 284.578 297.339 284.452 C 297.339 284.327 296.817 283.351 296.178 282.284 C 295.013 280.336 290.074 271.73 289.086 269.926 C 288.795 269.395 287.854 267.814 286.993 266.412 C 286.132 265.01 284.701 262.413 283.813 260.642 C 282.925 258.87 281.835 256.939 281.392 256.35 C 280.631 255.338 275.708 246.599 275.708 246.26 C 275.708 246.172 275.049 245.076 274.243 243.823 C 273.437 242.57 272.487 240.967 272.131 240.261 C 270.087 236.206 266.492 233.039 262.888 232.117 C 257.014 230.615 259.93 230.667 158.627 230.247 C 100.8 230.006 95.391 229.864 85.153 228.309 C 70.453 226.078 56.582 220.796 49.5 214.734 C 47.923 213.384 47.936 212.377 49.521 213.115 C 50.944 213.777 60.919 217.315 62.438 217.696 C 64.926 218.32 64.393 217.857 61.036 216.479 C 34.028 205.391 12.194 175.43 11.092 147.946 C 9.567 109.922 39.005 73.58 79.202 63.861 C 85.573 62.321 92.828 61.214 99.414 60.777 C 102.616 60.565 107.057 60.271 109.282 60.124 C 114.201 59.798 115.204 59.239 118.112 55.208 C 119.15 53.768 121.468 50.535 123.262 48.023 C 135.961 30.246 164.492 13.464 185.236 11.571 C 189.115 11.217 198.525 11.373 201.373 11.838 M 180.944 53.558 C 160.109 54.676 137.313 71.424 130.454 90.653 C 124.507 107.323 126.536 119.505 138.543 139.227 C 139.808 141.305 141.156 143.618 141.54 144.367 C 142.233 145.722 144.378 148.29 148.697 152.935 C 149.939 154.271 151.318 155.89 151.761 156.532 C 152.818 158.064 159.993 163.354 164.12 165.644 C 176.417 172.468 180.548 174.216 192.618 177.7 C 194.412 178.218 197.657 179.164 199.828 179.802 C 202 180.441 206.669 181.725 210.204 182.657 C 213.739 183.59 218.374 185.069 220.505 185.946 C 222.635 186.822 226.155 188.151 228.326 188.899 C 237.566 192.08 241.585 195.18 245.836 202.403 C 246.743 203.946 254.327 215.314 256.672 218.649 C 258.956 221.895 258.498 223.531 255.143 224.107 C 252.378 224.581 100.925 224.403 94.421 223.918 C 87.095 223.372 77.047 221.688 72.333 220.217 C 67.539 218.72 66.801 218.761 71.215 220.278 C 74.374 221.364 79.125 222.401 86.695 223.657 C 94.459 224.945 105.219 225.095 203.433 225.29 C 259.217 225.4 256.796 225.488 258.518 223.298 C 259.68 221.821 259.425 220.759 257.082 217.331 C 253.447 212.013 249.058 205.283 247.372 202.442 C 246.487 200.953 245.189 199.098 244.487 198.322 C 243.785 197.545 242.948 196.524 242.629 196.052 C 240.206 192.474 237.08 190.564 228.624 187.491 C 225.533 186.368 221.073 184.729 218.712 183.848 C 216.352 182.967 213.107 181.941 211.502 181.568 C 206.68 180.446 198.177 177.909 185.751 173.884 C 177.301 171.147 161.244 162.638 158.665 159.532 C 158.408 159.221 157.302 158.424 156.208 157.759 C 154.803 156.906 153.945 156.074 153.286 154.928 C 152.773 154.035 151.384 152.3 150.2 151.073 C 145.63 146.335 143.582 143.989 143.004 142.833 C 142.673 142.172 141.674 140.627 140.784 139.399 C 136.261 133.164 131.492 122.988 129.57 115.473 C 126.927 105.14 130.471 89.385 137.51 80.172 C 146.757 68.07 161.809 58.091 174.339 55.755 C 198.95 51.167 224.384 63.902 239.108 88.186 C 247.078 101.329 250.983 120.847 247.911 132.189 C 246.053 139.052 245.935 147.711 247.616 153.82 C 248.006 155.236 248.682 157.871 249.119 159.675 C 250.068 163.594 250.465 164.63 254.494 173.734 C 257.839 181.294 258.716 182.772 263.296 188.578 C 264.929 190.65 266.961 193.279 267.811 194.423 C 273.434 201.987 277.861 206.594 285.322 212.646 C 289.381 215.939 291.573 218.003 293.901 220.725 C 297.961 225.471 302.616 225.728 316.244 221.958 C 332.157 217.556 345.424 210.522 353.991 201.944 L 356.91 199.021 L 353.991 201.742 C 341.692 213.21 318.034 223.169 303.079 223.175 C 298.636 223.176 297.61 222.818 295.569 220.552 C 292.522 217.169 289.166 213.985 285.494 210.993 C 279.226 205.887 274.575 201.133 270.252 195.416 C 261.145 183.374 259.083 180.445 258.336 178.491 C 258.021 177.669 256.639 174.601 255.263 171.674 C 248.055 156.337 246.269 144.692 249.299 132.774 C 252.817 118.936 247.803 97.345 237.896 83.675 C 222.373 62.255 203.626 52.341 180.944 53.558 M 181.974 78.965 C 167.778 81.776 163.741 84.403 156.023 95.854 C 144.022 113.658 150.112 134.009 171.811 148.609 C 189.172 160.29 200.762 161.041 214.954 151.404 C 235.339 137.561 234.149 106.586 212.535 88.452 C 204.087 81.364 190.757 77.226 181.974 78.965" stroke="none" fill="#f8b146" fill-rule="evenodd"/>
    <path id="path2" d="M 179.056 55.161 C 171.856 56.017 168.953 56.837 162.918 59.716 C 141.442 69.964 128.808 87.626 128.652 107.622 C 128.586 116.16 133.762 129.718 140.784 139.399 C 141.674 140.627 142.673 142.172 143.004 142.833 C 143.582 143.989 145.63 146.335 150.2 151.073 C 151.384 152.3 152.773 154.035 153.286 154.928 C 153.945 156.074 154.803 156.906 156.208 157.759 C 157.302 158.424 158.408 159.221 158.665 159.532 C 161.244 162.638 177.301 171.147 185.751 173.884 C 198.177 177.909 206.68 180.446 211.502 181.568 C 213.107 181.941 216.352 182.967 218.712 183.848 C 221.073 184.729 225.533 186.368 228.624 187.491 C 237.08 190.564 240.206 192.474 242.629 196.052 C 242.948 196.524 243.785 197.545 244.487 198.322 C 245.189 199.098 246.487 200.953 247.372 202.442 C 249.058 205.283 253.447 212.013 257.082 217.331 C 259.425 220.759 259.68 221.821 258.518 223.298 C 256.796 225.488 259.217 225.4 203.433 225.29 C 105.219 225.095 94.459 224.945 86.695 223.657 C 78.918 222.367 74.296 221.341 70.521 220.069 C 68.275 219.312 65.202 218.385 63.691 218.01 C 61.233 217.4 51.513 214.042 49.521 213.115 C 47.936 212.377 47.923 213.384 49.5 214.734 C 56.582 220.796 70.453 226.078 85.153 228.309 C 95.391 229.864 100.8 230.006 158.627 230.247 C 259.93 230.667 257.014 230.615 262.888 232.117 C 266.492 233.039 270.087 236.206 272.131 240.261 C 272.487 240.967 273.437 242.57 274.243 243.823 C 275.049 245.076 275.708 246.172 275.708 246.26 C 275.708 246.599 280.631 255.338 281.392 256.35 C 281.835 256.939 282.925 258.87 283.813 260.642 C 284.701 262.413 286.132 265.01 286.993 266.412 C 287.854 267.814 288.795 269.395 289.086 269.926 C 290.074 271.73 295.013 280.336 296.178 282.284 C 296.817 283.351 297.339 284.327 297.339 284.452 C 297.339 284.578 297.715 285.174 298.175 285.777 C 298.907 286.737 301.567 291.705 301.614 292.2 C 301.683 292.94 303.219 295.783 304.415 297.386 C 305.387 298.69 306.271 300.53 307.122 303.019 C 308.49 307.024 309.494 308.874 310.896 309.978 C 311.391 310.366 311.748 310.76 311.692 310.851 C 311.635 310.943 311.917 311.378 312.318 311.818 C 312.72 312.258 313.449 313.264 313.938 314.053 C 316.454 318.11 322.683 322.542 327.382 323.617 C 328.515 323.877 330.137 324.265 330.987 324.479 C 334.001 325.24 342.246 324.508 344.721 323.26 C 345.193 323.022 346.408 322.652 347.422 322.439 C 348.435 322.225 349.695 321.743 350.221 321.369 C 350.748 320.994 351.319 320.687 351.491 320.687 C 351.863 320.687 353.576 318.942 354.121 318.008 C 356.39 314.115 357.068 312.38 357.076 310.439 C 357.079 309.807 357.335 308.803 357.646 308.207 C 357.956 307.612 358.337 306.864 358.494 306.545 C 358.771 305.978 362.751 291.415 357.496 286.855 C 352.097 282.17 335.757 264.759 332.098 259.792 C 331.104 258.443 329.1 255.717 327.644 253.734 C 324.363 249.264 320.285 244.46 315.404 239.313 C 309.68 233.277 307.697 229.904 309.161 228.689 C 309.638 228.293 312.226 227.852 320.343 226.782 C 330.308 225.469 337.597 223.669 342.044 221.424 C 343.128 220.877 344.221 220.429 344.472 220.429 C 345.252 220.429 351.651 216.458 353.82 214.628 C 354.953 213.672 356.712 212.248 357.729 211.464 C 362.201 208.016 368.817 200.706 371.835 195.88 C 373.016 193.991 374.336 191.906 374.77 191.245 C 375.854 189.59 380.591 179.174 381.407 176.652 C 381.773 175.519 382.459 173.511 382.931 172.189 C 383.404 170.867 383.979 168.781 384.21 167.554 C 384.442 166.326 384.872 164.472 385.167 163.433 C 386.478 158.818 385.436 141.459 383.848 141.459 C 383.332 141.459 382.882 142.628 382.649 144.576 C 382.12 148.992 380.265 157.825 378.833 162.747 C 374.937 176.141 374.116 177.737 365.99 187.704 C 364.941 188.99 362.552 191.974 360.682 194.335 C 349.726 208.162 336.582 216.332 316.244 221.958 C 302.616 225.728 297.961 225.471 293.901 220.725 C 291.573 218.003 289.381 215.939 285.322 212.646 C 277.861 206.594 273.434 201.987 267.811 194.423 C 266.961 193.279 264.929 190.65 263.296 188.578 C 258.716 182.772 257.839 181.294 254.494 173.734 C 250.465 164.63 250.068 163.594 249.119 159.675 C 248.682 157.871 248.006 155.236 247.616 153.82 C 245.935 147.711 246.053 139.052 247.911 132.189 C 250.983 120.847 247.078 101.329 239.108 88.186 C 225.361 65.514 201.65 52.475 179.056 55.161 M 195.193 79.794 C 216.446 84.449 232.805 108.113 229.172 128.945 C 226.779 142.665 216.886 153.053 202.033 157.44 C 188.186 161.531 162.836 146.832 153.892 129.527 C 146.782 115.773 148.957 103.297 160.867 89.518 C 166.534 82.96 169.641 81.407 181.974 78.965 C 184.467 78.471 191.037 78.883 195.193 79.794" stroke="none" fill="#a86735" fill-rule="evenodd"/>
  </g>
</svg>